<svg width="33" height="33" viewBox="0 0 33 33" fill="none" xmlns="http://www.w3.org/2000/svg">
<path d="M23.3771 1.24396L20.2576 4.36349L28.6365 12.7424L31.7561 9.62286C33.3674 8.01154 33.3674 5.40118 31.7561 3.78986L29.2166 1.24396C27.6053 -0.367371 24.9949 -0.367371 23.3836 1.24396H23.3771ZM18.801 5.82013L3.77695 20.8506C3.10664 21.5209 2.61679 22.3524 2.34609 23.2611L0.0644489 31.0149C-0.0966839 31.5627 0.0515583 32.1492 0.451168 32.5488C0.850777 32.9485 1.4373 33.0967 1.97871 32.942L9.73242 30.6604C10.6412 30.3897 11.4727 29.8998 12.143 29.2295L27.1799 14.199L18.801 5.82013Z" fill="black"/>
</svg>
